<?xml version="1.0" encoding="UTF-8"?>
<svg xmlns="http://www.w3.org/2000/svg" width="480" height="160" viewBox="0 0 480 160" role="img" aria-label="Mr. MoneyBags logo">
  <defs>
    <linearGradient id="g1" x1="0" y1="0" x2="1" y2="1">
      <stop offset="0%" stop-color="#0A5EAA"/>
      <stop offset="100%" stop-color="#09427A"/>
    </linearGradient>
    <filter id="shadow" x="-20%" y="-20%" width="140%" height="140%">
      <feDropShadow dx="0" dy="2" stdDeviation="4" flood-opacity="0.25"/>
    </filter>
  </defs>

  <!-- Bag Icon -->
  <g transform="translate(24,20)" filter="url(#shadow)">
    <path d="M64 8c8 12 8 20 0 28c10 6 18 12 26 22c10 14 14 30 10 44c-5 18-20 30-36 30s-31-12-36-30c-4-14 0-30 10-44c8-10 16-16 26-22c-8-8-8-16 0-28z" fill="url(#g1)"/>
    <path d="M54 70h20c6 0 10 4 10 10s-4 10-10 10h-20c-6 0-10-4-10-10s4-10 10-10z" fill="#F5B400"/>
    <path d="M64 58c9 0 16 7 16 16s-7 16-16 16s-16-7-16-16s7-16 16-16z" fill="#fff" opacity=".15"/>
  </g>

  <!-- Wordmark -->
  <g transform="translate(140,46)">
    <text x="0" y="0" font-family="Inter, system-ui, -apple-system, Segoe UI, Roboto, Helvetica, Arial, sans-serif" font-weight="800" font-size="36" fill="#0A5EAA">Mr. MoneyBags</text>
    <text x="0" y="38" font-family="Inter, system-ui, -apple-system, Segoe UI, Roboto, Helvetica, Arial, sans-serif" font-weight="500" font-size="18" fill="#F5B400">Audit‑ready fund accounting</text>
  </g>
</svg>
